<svg width="40" height="40" viewBox="0 0 40 40" fill="none" xmlns="http://www.w3.org/2000/svg">
<circle cx="20" cy="20" r="20" fill="white"/>
<mask id="mask0_18_34" style="mask-type:alpha" maskUnits="userSpaceOnUse" x="10" y="10" width="20" height="20">
<rect x="10" y="10" width="20" height="20" fill="#D9D9D9"/>
</mask>
<g mask="url(#mask0_18_34)">
<path d="M28.8333 30C26.5185 30 24.2315 29.4954 21.9722 28.4861C19.713 27.4769 17.6574 26.0463 15.8056 24.1944C13.9537 22.3426 12.5231 20.287 11.5139 18.0278C10.5046 15.7685 10 13.4815 10 11.1667C10 10.8333 10.1111 10.5556 10.3333 10.3333C10.5556 10.1111 10.8333 10 11.1667 10H15.6667C15.9259 10 16.1574 10.088 16.3611 10.2639C16.5648 10.4398 16.6852 10.6481 16.7222 10.8889L17.4444 14.7778C17.4815 15.0741 17.4722 15.3241 17.4167 15.5278C17.3611 15.7315 17.2593 15.9074 17.1111 16.0556L14.4167 18.7778C14.787 19.463 15.2269 20.125 15.7361 20.7639C16.2454 21.4028 16.8056 22.0185 17.4167 22.6111C17.9907 23.1852 18.5926 23.7176 19.2222 24.2083C19.8519 24.6991 20.5185 25.1481 21.2222 25.5556L23.8333 22.9444C24 22.7778 24.2176 22.6528 24.4861 22.5694C24.7546 22.4861 25.0185 22.463 25.2778 22.5L29.1111 23.2778C29.3704 23.3519 29.5833 23.4861 29.75 23.6806C29.9167 23.875 30 24.0926 30 24.3333V28.8333C30 29.1667 29.8889 29.4444 29.6667 29.6667C29.4444 29.8889 29.1667 30 28.8333 30Z" fill="#333333"/>
</g>
</svg>
