<svg width="300" height="70" viewBox="0 0 300 70" fill="none" xmlns="http://www.w3.org/2000/svg">
<path d="M89.2383 19.4561C91.9238 19.4561 94.3001 19.8792 96.3672 20.7256C98.4505 21.5719 100.2 22.7438 101.616 24.2412C103.049 25.7223 104.131 27.472 104.863 29.4902C105.612 31.5085 105.986 33.6813 105.986 36.0088C105.986 38.3363 105.612 40.5091 104.863 42.5273C104.131 44.5456 103.057 46.3034 101.641 47.8008C100.225 49.2982 98.4831 50.4782 96.416 51.3408C94.349 52.2035 91.9808 52.6348 89.3115 52.6348C86.6097 52.6348 84.209 52.2116 82.1094 51.3652C80.0098 50.5189 78.2438 49.3551 76.8115 47.874C75.3792 46.3766 74.2887 44.6188 73.54 42.6006C72.7913 40.5661 72.417 38.3688 72.417 36.0088C72.417 33.6813 72.7832 31.5166 73.5156 29.5146C74.248 27.4964 75.3223 25.7467 76.7383 24.2656C78.1706 22.7682 79.9284 21.5964 82.0117 20.75C84.1113 19.8874 86.5202 19.4561 89.2383 19.4561ZM89.2139 24.1924C87.8141 24.1924 86.6097 24.4609 85.6006 24.998C84.6077 25.5352 83.7858 26.3164 83.1348 27.3418C82.5 28.3509 82.028 29.5879 81.7188 31.0527C81.4258 32.5013 81.2793 34.137 81.2793 35.96C81.2793 37.8643 81.4421 39.557 81.7676 41.0381C82.0931 42.5192 82.5814 43.7725 83.2324 44.7979C83.8835 45.807 84.7054 46.5801 85.6982 47.1172C86.6911 47.638 87.863 47.8984 89.2139 47.8984C90.5811 47.8984 91.7611 47.6299 92.7539 47.0928C93.763 46.5394 94.585 45.75 95.2197 44.7246C95.8708 43.6992 96.3509 42.4541 96.6602 40.9893C96.9857 39.5081 97.1484 37.8398 97.1484 35.9844C97.1484 32.1758 96.4974 29.2624 95.1953 27.2441C93.8932 25.2096 91.8994 24.1924 89.2139 24.1924ZM107.622 20.0664C109.201 20.0827 110.706 20.0908 112.139 20.0908C112.741 20.0908 113.359 20.099 113.994 20.1152C114.645 20.1152 115.272 20.1152 115.874 20.1152C116.493 20.1152 117.07 20.1152 117.607 20.1152C118.145 20.1152 118.608 20.1152 118.999 20.1152H128.228C128.927 20.1152 129.66 20.1152 130.425 20.1152C131.206 20.099 131.979 20.0908 132.744 20.0908C133.525 20.0908 134.29 20.0908 135.039 20.0908C135.788 20.0745 136.496 20.0664 137.163 20.0664V30.8574H133.306V27.5615C133.306 26.9919 133.273 26.5361 133.208 26.1943C133.143 25.8363 132.98 25.5596 132.72 25.3643C132.459 25.1689 132.069 25.0387 131.548 24.9736C131.043 24.9085 130.352 24.876 129.473 24.876H126.421V45.7744C126.421 45.9535 126.437 46.1569 126.47 46.3848C126.519 46.5964 126.616 46.7998 126.763 46.9951C126.925 47.1742 127.161 47.3288 127.471 47.459C127.796 47.5892 128.228 47.6543 128.765 47.6543H130.132V52C129.53 52 128.944 52 128.374 52C127.821 52 127.243 52 126.641 52C126.055 51.9837 125.428 51.9756 124.761 51.9756C124.093 51.9593 123.345 51.9512 122.515 51.9512C121.945 51.9512 121.326 51.9593 120.659 51.9756C120.008 51.9756 119.333 51.9756 118.633 51.9756C117.949 51.9756 117.274 51.9837 116.606 52C115.939 52 115.312 52 114.727 52V47.6543H116.094C116.696 47.6543 117.152 47.5729 117.461 47.4102C117.786 47.2474 118.022 47.0358 118.169 46.7754C118.315 46.515 118.397 46.222 118.413 45.8965C118.429 45.5547 118.438 45.221 118.438 44.8955V24.876H114.531C113.864 24.876 113.327 24.9085 112.92 24.9736C112.513 25.0225 112.196 25.1201 111.968 25.2666C111.756 25.4131 111.61 25.6084 111.528 25.8525C111.463 26.0967 111.431 26.4059 111.431 26.7803C111.431 26.9593 111.431 27.2279 111.431 27.5859C111.431 27.9277 111.431 28.3021 111.431 28.709C111.431 29.0996 111.431 29.4984 111.431 29.9053C111.447 30.2959 111.455 30.6133 111.455 30.8574H107.622V20.0664ZM156.035 19.4561C158.721 19.4561 161.097 19.8792 163.164 20.7256C165.247 21.5719 166.997 22.7438 168.413 24.2412C169.845 25.7223 170.928 27.472 171.66 29.4902C172.409 31.5085 172.783 33.6813 172.783 36.0088C172.783 38.3363 172.409 40.5091 171.66 42.5273C170.928 44.5456 169.854 46.3034 168.438 47.8008C167.021 49.2982 165.28 50.4782 163.213 51.3408C161.146 52.2035 158.778 52.6348 156.108 52.6348C153.407 52.6348 151.006 52.2116 148.906 51.3652C146.807 50.5189 145.041 49.3551 143.608 47.874C142.176 46.3766 141.086 44.6188 140.337 42.6006C139.588 40.5661 139.214 38.3688 139.214 36.0088C139.214 33.6813 139.58 31.5166 140.312 29.5146C141.045 27.4964 142.119 25.7467 143.535 24.2656C144.967 22.7682 146.725 21.5964 148.809 20.75C150.908 19.8874 153.317 19.4561 156.035 19.4561ZM156.011 24.1924C154.611 24.1924 153.407 24.4609 152.397 24.998C151.405 25.5352 150.583 26.3164 149.932 27.3418C149.297 28.3509 148.825 29.5879 148.516 31.0527C148.223 32.5013 148.076 34.137 148.076 35.96C148.076 37.8643 148.239 39.557 148.564 41.0381C148.89 42.5192 149.378 43.7725 150.029 44.7979C150.68 45.807 151.502 46.5801 152.495 47.1172C153.488 47.638 154.66 47.8984 156.011 47.8984C157.378 47.8984 158.558 47.6299 159.551 47.0928C160.56 46.5394 161.382 45.75 162.017 44.7246C162.668 43.6992 163.148 42.4541 163.457 40.9893C163.783 39.5081 163.945 37.8398 163.945 35.9844C163.945 32.1758 163.294 29.2624 161.992 27.2441C160.69 25.2096 158.696 24.1924 156.011 24.1924ZM204.399 20.1152V24.876L185.698 47.5322H197.515C198.133 47.5322 198.63 47.4427 199.004 47.2637C199.378 47.0846 199.663 46.7917 199.858 46.3848C200.054 45.9616 200.184 45.4082 200.249 44.7246C200.314 44.041 200.347 43.2028 200.347 42.21H204.912V52H176.543V47.0195L195.024 24.6074H185.747C184.836 24.6074 184.103 24.6156 183.55 24.6318C183.013 24.6481 182.598 24.7214 182.305 24.8516C182.028 24.9818 181.841 25.2015 181.743 25.5107C181.662 25.82 181.621 26.2757 181.621 26.8779V29.4658H177.104V20.1152H204.399ZM235.796 20.0664V28.9531H231.035V27.9521C231.035 27.1709 230.954 26.5687 230.791 26.1455C230.628 25.7223 230.4 25.4212 230.107 25.2422C229.814 25.0469 229.456 24.9329 229.033 24.9004C228.61 24.8678 228.138 24.8516 227.617 24.8516H219.438V33.7139H224.248C224.606 33.7139 224.907 33.6976 225.151 33.665C225.412 33.6162 225.632 33.5186 225.811 33.3721C225.99 33.2256 226.136 32.9977 226.25 32.6885C226.38 32.3792 226.486 31.9561 226.567 31.4189H228.643V40.0615H226.543C226.445 39.5407 226.34 39.1257 226.226 38.8164C226.112 38.5072 225.965 38.2793 225.786 38.1328C225.607 37.9701 225.396 37.8724 225.151 37.8398C224.907 37.791 224.606 37.7666 224.248 37.7666H219.438V47.2637H227.959C228.561 47.2637 229.066 47.223 229.473 47.1416C229.88 47.0602 230.205 46.8812 230.449 46.6045C230.71 46.3278 230.897 45.9372 231.011 45.4326C231.125 44.9118 231.182 44.2201 231.182 43.3574V42.5762H235.894V52H207.891V47.6543H209.697C210.12 47.6543 210.446 47.5811 210.674 47.4346C210.918 47.2881 211.097 47.0846 211.211 46.8242C211.341 46.5638 211.414 46.2708 211.431 45.9453C211.463 45.6198 211.479 45.2699 211.479 44.8955V27.3174C211.479 26.9593 211.471 26.6012 211.455 26.2432C211.439 25.8851 211.374 25.5677 211.26 25.291C211.146 25.0143 210.967 24.7946 210.723 24.6318C210.495 24.4528 210.153 24.3633 209.697 24.3633H207.988V20.0664H235.796ZM264.336 28.9775H259.648C259.583 28.766 259.526 28.5625 259.478 28.3672C259.445 28.1719 259.404 27.9766 259.355 27.7812C259.079 26.3327 258.46 25.2259 257.5 24.4609C256.54 23.6797 255.083 23.2891 253.13 23.2891C252.332 23.2891 251.616 23.3867 250.981 23.582C250.347 23.7773 249.801 24.054 249.346 24.4121C248.906 24.7702 248.564 25.1934 248.32 25.6816C248.076 26.1699 247.954 26.7152 247.954 27.3174C247.954 28.2451 248.239 29.0101 248.809 29.6123C249.378 30.2145 250.151 30.7598 251.128 31.248C252.104 31.7201 253.236 32.1839 254.521 32.6396C255.807 33.0791 257.166 33.6081 258.599 34.2266C259.543 34.6172 260.43 35.0811 261.26 35.6182C262.106 36.139 262.847 36.7575 263.481 37.4736C264.116 38.1735 264.613 38.9954 264.971 39.9395C265.345 40.8672 265.532 41.9333 265.532 43.1377C265.532 44.4235 265.28 45.6442 264.775 46.7998C264.271 47.9391 263.547 48.9482 262.603 49.8271C261.675 50.6898 260.535 51.3734 259.185 51.8779C257.834 52.3825 256.312 52.6348 254.619 52.6348C253.805 52.6348 252.992 52.5615 252.178 52.415C251.38 52.2848 250.607 52.0895 249.858 51.8291C249.126 51.5687 248.434 51.2513 247.783 50.877C247.148 50.5026 246.587 50.0794 246.099 49.6074V52H240.752V42.0879H245.439C245.537 42.5111 245.635 42.9017 245.732 43.2598C245.895 44.0898 246.131 44.8304 246.44 45.4814C246.766 46.1162 247.197 46.6533 247.734 47.0928C248.271 47.5322 248.931 47.8659 249.712 48.0938C250.493 48.3216 251.429 48.4355 252.52 48.4355C253.35 48.4355 254.098 48.3379 254.766 48.1426C255.449 47.9473 256.035 47.6706 256.523 47.3125C257.012 46.9382 257.386 46.4824 257.646 45.9453C257.907 45.3919 258.037 44.7734 258.037 44.0898C258.037 43.1621 257.752 42.389 257.183 41.7705C256.629 41.1357 255.889 40.5824 254.961 40.1104C254.049 39.6383 253.016 39.207 251.86 38.8164C250.705 38.4095 249.533 37.9619 248.345 37.4736C245.773 36.4157 243.861 35.1706 242.607 33.7383C241.37 32.306 240.752 30.5726 240.752 28.5381C240.752 27.2523 240.988 26.056 241.46 24.9492C241.948 23.8424 242.648 22.8822 243.56 22.0684C244.487 21.2546 245.61 20.6198 246.929 20.1641C248.247 19.6921 249.753 19.4561 251.445 19.4561C252.91 19.4561 254.351 19.6351 255.767 19.9932C257.199 20.3512 258.542 21.0267 259.795 22.0195C259.795 21.7917 259.787 21.5638 259.771 21.3359C259.771 21.1081 259.771 20.8965 259.771 20.7012V20.042C259.868 20.042 260.08 20.042 260.405 20.042C260.747 20.042 261.138 20.0501 261.577 20.0664C262.033 20.0664 262.505 20.0664 262.993 20.0664C263.498 20.0664 263.945 20.0664 264.336 20.0664V28.9775ZM269.048 20.0664C270.627 20.0827 272.132 20.0908 273.564 20.0908C274.167 20.0908 274.785 20.099 275.42 20.1152C276.071 20.1152 276.698 20.1152 277.3 20.1152C277.918 20.1152 278.496 20.1152 279.033 20.1152C279.57 20.1152 280.034 20.1152 280.425 20.1152H289.653C290.353 20.1152 291.086 20.1152 291.851 20.1152C292.632 20.099 293.405 20.0908 294.17 20.0908C294.951 20.0908 295.716 20.0908 296.465 20.0908C297.214 20.0745 297.922 20.0664 298.589 20.0664V30.8574H294.731V27.5615C294.731 26.9919 294.699 26.5361 294.634 26.1943C294.569 25.8363 294.406 25.5596 294.146 25.3643C293.885 25.1689 293.494 25.0387 292.974 24.9736C292.469 24.9085 291.777 24.876 290.898 24.876H287.847V45.7744C287.847 45.9535 287.863 46.1569 287.896 46.3848C287.944 46.5964 288.042 46.7998 288.188 46.9951C288.351 47.1742 288.587 47.3288 288.896 47.459C289.222 47.5892 289.653 47.6543 290.19 47.6543H291.558V52C290.955 52 290.369 52 289.8 52C289.246 52 288.669 52 288.066 52C287.48 51.9837 286.854 51.9756 286.187 51.9756C285.519 51.9593 284.771 51.9512 283.94 51.9512C283.371 51.9512 282.752 51.9593 282.085 51.9756C281.434 51.9756 280.758 51.9756 280.059 51.9756C279.375 51.9756 278.7 51.9837 278.032 52C277.365 52 276.738 52 276.152 52V47.6543H277.52C278.122 47.6543 278.577 47.5729 278.887 47.4102C279.212 47.2474 279.448 47.0358 279.595 46.7754C279.741 46.515 279.823 46.222 279.839 45.8965C279.855 45.5547 279.863 45.221 279.863 44.8955V24.876H275.957C275.29 24.876 274.753 24.9085 274.346 24.9736C273.939 25.0225 273.621 25.1201 273.394 25.2666C273.182 25.4131 273.035 25.6084 272.954 25.8525C272.889 26.0967 272.856 26.4059 272.856 26.7803C272.856 26.9593 272.856 27.2279 272.856 27.5859C272.856 27.9277 272.856 28.3021 272.856 28.709C272.856 29.0996 272.856 29.4984 272.856 29.9053C272.873 30.2959 272.881 30.6133 272.881 30.8574H269.048V20.0664Z" fill="white"/>
<rect x="7.57953" y="53.043" width="57.4204" height="3.14662" fill="white"/>
<path d="M10.7952 32.2526L10.7952 56.1894L7.57962 56.1894L7.57962 28.3755L10.7952 32.2526Z" fill="white"/>
<path d="M7.57953 8.87793L7.57953 -3.43323e-05L10.7951 -3.42939e-05L10.7951 8.87793L7.57953 8.87793Z" fill="white"/>
<rect x="65.0001" width="56.1896" height="3.33039" transform="rotate(90 65.0001 0)" fill="white"/>
<rect x="7.57971" width="57.4204" height="3.259" fill="white"/>
<path d="M0 12.5864H40.0937C44.4799 12.5864 48.4499 15.1836 50.2068 19.2026C53.4056 26.5196 49.2417 34.9538 41.4878 36.8636L22.5662 41.5241L16.1926 31.5785L27.3321 30.23L36.7989 29.0662C38.0818 28.9085 39.2983 28.4078 40.3206 27.6168L40.7666 27.2717C42.3835 26.0207 42.6764 23.6941 41.4201 22.0814C40.864 21.3675 40.0097 20.95 39.1048 20.95H7.80919L0 12.5864Z" fill="white"/>
<path d="M27.3325 30.2301L49.382 64.0001L36.0604 64.0001L15.9632 31.5225L27.3325 30.2301Z" fill="white"/>
<path d="M15.9627 31.5221L27.332 30.2297L34.2224 40.7934L15.9627 31.5221Z" fill="white"/>
<path d="M34.2224 40.7935L30.203 54.5037L22.7383 42.423L34.2224 40.7935Z" fill="white"/>
</svg>
