<svg width="558" height="109" viewBox="0 0 558 109" fill="none" xmlns="http://www.w3.org/2000/svg">
<path d="M156.846 62.9756C157.095 64.359 157.33 65.5627 157.552 66.5864C157.801 67.5825 158.077 68.4126 158.382 69.0767C158.714 69.7407 159.101 70.2388 159.544 70.5708C160.014 70.8752 160.582 71.0273 161.246 71.0273C162.214 71.0273 162.947 70.7507 163.445 70.1973C163.943 69.6439 164.192 68.7031 164.192 67.375L169.007 66.7939C169.007 66.8216 169.007 66.9046 169.007 67.043C169.007 67.1536 168.993 67.292 168.965 67.458C168.965 67.5964 168.965 67.7347 168.965 67.873C168.965 67.9837 168.965 68.0529 168.965 68.0806C168.91 70.0174 168.606 71.6776 168.052 73.061C167.527 74.4445 166.766 75.5928 165.77 76.5059C164.773 77.3913 163.57 78.0415 162.159 78.4565C160.775 78.8716 159.198 79.0791 157.427 79.0791C155.297 79.0791 153.443 78.7747 151.866 78.166C150.289 77.5573 148.933 76.6442 147.798 75.4268C146.664 74.2093 145.723 72.6875 144.976 70.8613C144.229 69.0075 143.62 66.8354 143.15 64.3452C142.735 62.1317 142.237 60.2917 141.656 58.8252C141.102 57.3587 140.48 56.1413 139.788 55.1729C139.041 54.5641 138.142 54.1629 137.09 53.9692C136.039 53.7479 134.738 53.6372 133.189 53.6372H129.578L129.537 67.624C129.537 68.2604 129.592 68.7861 129.703 69.2012C129.841 69.5885 130.062 69.8929 130.367 70.1143C130.671 70.3079 131.086 70.4463 131.612 70.5293C132.138 70.5846 132.815 70.6123 133.646 70.6123H135.472V78C134.448 78 133.424 78 132.4 78C131.404 78 130.381 78 129.329 78C128.278 77.9723 127.157 77.9585 125.967 77.9585C124.805 77.9308 123.546 77.917 122.19 77.917C120.862 77.917 119.645 77.9308 118.538 77.9585C117.459 77.9585 116.435 77.9585 115.467 77.9585C114.498 77.9585 113.558 77.9723 112.645 78C111.759 78 110.846 78 109.905 78V70.6123H111.233C112.423 70.6123 113.336 70.5293 113.973 70.3633C114.637 70.1696 115.107 69.8929 115.384 69.5332C115.688 69.1735 115.854 68.7308 115.882 68.2051C115.937 67.6794 115.965 67.0706 115.965 66.3789V35.3755C115.965 34.6007 115.923 33.9505 115.84 33.4248C115.785 32.8714 115.591 32.4287 115.259 32.0967C114.955 31.737 114.471 31.488 113.807 31.3496C113.143 31.1836 112.216 31.1006 111.026 31.1006H109.905V23.7129H136.426C138.446 23.7129 140.438 23.7821 142.403 23.9204C144.395 24.0588 146.277 24.3354 148.047 24.7505C149.846 25.1379 151.506 25.6774 153.028 26.3691C154.577 27.0609 155.905 27.9601 157.012 29.0669C158.147 30.1737 159.032 31.5156 159.668 33.0928C160.305 34.6699 160.623 36.5238 160.623 38.6543C160.623 40.1484 160.374 41.5734 159.876 42.9292C159.378 44.2573 158.645 45.4609 157.676 46.54C156.736 47.6191 155.573 48.5461 154.19 49.3208C152.834 50.0955 151.285 50.6766 149.542 51.064C150.372 51.4513 151.16 51.9355 151.907 52.5166C152.682 53.0977 153.388 53.8447 154.024 54.7578C154.66 55.6709 155.214 56.7915 155.684 58.1196C156.182 59.4478 156.569 61.0664 156.846 62.9756ZM129.537 47.6191H135.97C137.824 47.6191 139.428 47.4946 140.784 47.2456C142.168 46.9689 143.302 46.5124 144.188 45.876C145.073 45.2396 145.737 44.4095 146.18 43.3857C146.622 42.362 146.844 41.0754 146.844 39.5259C146.844 37.8934 146.581 36.5514 146.055 35.5C145.529 34.4209 144.755 33.577 143.731 32.9683C142.735 32.3319 141.476 31.903 139.954 31.6816C138.46 31.4326 136.717 31.3081 134.725 31.3081H129.537V47.6191ZM199.554 22.6753C204.119 22.6753 208.159 23.3947 211.673 24.8335C215.215 26.2723 218.189 28.2645 220.596 30.8101C223.031 33.328 224.871 36.3024 226.116 39.7334C227.389 43.1644 228.025 46.8582 228.025 50.8149C228.025 54.7716 227.389 58.4655 226.116 61.8965C224.871 65.3275 223.045 68.3158 220.638 70.8613C218.23 73.4069 215.27 75.4129 211.756 76.8794C208.242 78.3459 204.216 79.0791 199.678 79.0791C195.085 79.0791 191.004 78.3597 187.435 76.9209C183.865 75.4821 180.863 73.5037 178.428 70.9858C175.993 68.4403 174.139 65.452 172.867 62.021C171.594 58.5623 170.958 54.827 170.958 50.8149C170.958 46.8582 171.58 43.1782 172.825 39.7749C174.07 36.3439 175.896 33.3695 178.304 30.8516C180.739 28.306 183.727 26.3138 187.269 24.875C190.838 23.4085 194.933 22.6753 199.554 22.6753ZM199.512 30.7271C197.133 30.7271 195.085 31.1836 193.37 32.0967C191.682 33.0098 190.285 34.3379 189.178 36.0811C188.099 37.7965 187.296 39.8994 186.771 42.3896C186.272 44.8522 186.023 47.633 186.023 50.7319C186.023 53.9692 186.3 56.8468 186.854 59.3647C187.407 61.8826 188.237 64.0132 189.344 65.7563C190.451 67.4718 191.848 68.7861 193.536 69.6992C195.223 70.5846 197.216 71.0273 199.512 71.0273C201.836 71.0273 203.842 70.5708 205.53 69.6577C207.246 68.717 208.643 67.375 209.722 65.6318C210.829 63.8887 211.645 61.772 212.171 59.2817C212.724 56.7638 213.001 53.9277 213.001 50.7734C213.001 44.2988 211.894 39.346 209.681 35.915C207.467 32.4564 204.078 30.7271 199.512 30.7271ZM230.806 23.7129C233.49 23.7406 236.049 23.7544 238.484 23.7544C239.508 23.7544 240.56 23.7682 241.639 23.7959C242.745 23.7959 243.811 23.7959 244.834 23.7959C245.886 23.7959 246.868 23.7959 247.781 23.7959C248.694 23.7959 249.483 23.7959 250.147 23.7959H265.835C267.025 23.7959 268.27 23.7959 269.571 23.7959C270.899 23.7682 272.213 23.7544 273.514 23.7544C274.842 23.7544 276.142 23.7544 277.415 23.7544C278.688 23.7267 279.891 23.7129 281.026 23.7129V42.0576H274.468V36.4546C274.468 35.4862 274.413 34.7114 274.302 34.1304C274.192 33.5216 273.915 33.0513 273.472 32.7192C273.029 32.3872 272.365 32.1659 271.48 32.0552C270.622 31.9445 269.446 31.8892 267.952 31.8892H262.764V67.4165C262.764 67.7209 262.792 68.0667 262.847 68.4541C262.93 68.8138 263.096 69.1597 263.345 69.4917C263.622 69.7961 264.023 70.0589 264.549 70.2803C265.102 70.5016 265.835 70.6123 266.749 70.6123H269.073V78C268.049 78 267.053 78 266.084 78C265.144 78 264.161 78 263.138 78C262.142 77.9723 261.076 77.9585 259.942 77.9585C258.807 77.9308 257.535 77.917 256.124 77.917C255.155 77.917 254.104 77.9308 252.969 77.9585C251.862 77.9585 250.714 77.9585 249.524 77.9585C248.362 77.9585 247.214 77.9723 246.08 78C244.945 78 243.88 78 242.884 78V70.6123H245.208C246.232 70.6123 247.007 70.474 247.532 70.1973C248.086 69.9206 248.487 69.5609 248.736 69.1182C248.985 68.6755 249.123 68.1774 249.151 67.624C249.179 67.043 249.192 66.4757 249.192 65.9224V31.8892H242.552C241.417 31.8892 240.504 31.9445 239.812 32.0552C239.121 32.1382 238.581 32.3042 238.194 32.5532C237.834 32.8022 237.585 33.1343 237.447 33.5493C237.336 33.9644 237.281 34.4901 237.281 35.1265C237.281 35.4308 237.281 35.8874 237.281 36.4961C237.281 37.0771 237.281 37.7135 237.281 38.4053C237.281 39.0693 237.281 39.7472 237.281 40.439C237.308 41.103 237.322 41.6426 237.322 42.0576H230.806V23.7129ZM313.108 22.6753C317.674 22.6753 321.714 23.3947 325.228 24.8335C328.769 26.2723 331.744 28.2645 334.151 30.8101C336.586 33.328 338.426 36.3024 339.671 39.7334C340.944 43.1644 341.58 46.8582 341.58 50.8149C341.58 54.7716 340.944 58.4655 339.671 61.8965C338.426 65.3275 336.6 68.3158 334.192 70.8613C331.785 73.4069 328.825 75.4129 325.311 76.8794C321.797 78.3459 317.771 79.0791 313.233 79.0791C308.64 79.0791 304.559 78.3597 300.989 76.9209C297.42 75.4821 294.418 73.5037 291.983 70.9858C289.548 68.4403 287.694 65.452 286.421 62.021C285.149 58.5623 284.512 54.827 284.512 50.8149C284.512 46.8582 285.135 43.1782 286.38 39.7749C287.625 36.3439 289.451 33.3695 291.858 30.8516C294.293 28.306 297.282 26.3138 300.823 24.875C304.393 23.4085 308.488 22.6753 313.108 22.6753ZM313.067 30.7271C310.687 30.7271 308.64 31.1836 306.924 32.0967C305.236 33.0098 303.839 34.3379 302.732 36.0811C301.653 37.7965 300.851 39.8994 300.325 42.3896C299.827 44.8522 299.578 47.633 299.578 50.7319C299.578 53.9692 299.855 56.8468 300.408 59.3647C300.962 61.8826 301.792 64.0132 302.898 65.7563C304.005 67.4718 305.403 68.7861 307.09 69.6992C308.778 70.5846 310.77 71.0273 313.067 71.0273C315.391 71.0273 317.397 70.5708 319.085 69.6577C320.8 68.717 322.198 67.375 323.277 65.6318C324.384 63.8887 325.2 61.772 325.726 59.2817C326.279 56.7638 326.556 53.9277 326.556 50.7734C326.556 44.2988 325.449 39.346 323.235 35.915C321.022 32.4564 317.632 30.7271 313.067 30.7271ZM395.328 23.7959V31.8892L363.536 70.4048H383.624C384.675 70.4048 385.519 70.2526 386.155 69.9482C386.792 69.6439 387.276 69.1458 387.608 68.4541C387.94 67.7347 388.161 66.7939 388.272 65.6318C388.383 64.4697 388.438 63.0448 388.438 61.3569H396.199V78H347.972V69.5332L379.39 31.4326H363.619C362.069 31.4326 360.824 31.4465 359.883 31.4741C358.97 31.5018 358.265 31.6263 357.767 31.8477C357.296 32.069 356.978 32.4425 356.812 32.9683C356.674 33.494 356.604 34.2687 356.604 35.2925V39.6919H348.926V23.7959H395.328ZM448.702 23.7129V38.8203H440.608V37.1187C440.608 35.7905 440.47 34.7668 440.193 34.0474C439.917 33.328 439.529 32.8161 439.031 32.5117C438.533 32.1797 437.924 31.986 437.205 31.9307C436.486 31.8753 435.683 31.8477 434.798 31.8477H420.894V46.9136H429.07C429.679 46.9136 430.191 46.8859 430.606 46.8306C431.049 46.7476 431.422 46.5815 431.727 46.3325C432.031 46.0835 432.28 45.6961 432.474 45.1704C432.695 44.6447 432.875 43.9253 433.013 43.0122H436.541V57.7046H432.972C432.806 56.8192 432.626 56.1136 432.432 55.5879C432.238 55.0622 431.989 54.6748 431.685 54.4258C431.381 54.1491 431.021 53.9831 430.606 53.9277C430.191 53.8447 429.679 53.8032 429.07 53.8032H420.894V69.9482H435.379C436.403 69.9482 437.26 69.8791 437.952 69.7407C438.644 69.6024 439.197 69.298 439.612 68.8276C440.055 68.3573 440.373 67.6932 440.567 66.8354C440.761 65.95 440.857 64.7741 440.857 63.3076V61.9795H448.868V78H401.263V70.6123H404.334C405.053 70.6123 405.607 70.4878 405.994 70.2388C406.409 69.9897 406.714 69.6439 406.907 69.2012C407.129 68.7585 407.253 68.2604 407.281 67.707C407.336 67.1536 407.364 66.5588 407.364 65.9224V36.0396C407.364 35.4308 407.35 34.8221 407.322 34.2134C407.295 33.6047 407.184 33.0651 406.99 32.5947C406.797 32.1243 406.492 31.7508 406.077 31.4741C405.69 31.1698 405.109 31.0176 404.334 31.0176H401.429V23.7129H448.702ZM497.22 38.8618H489.251C489.14 38.5021 489.043 38.1562 488.96 37.8242C488.905 37.4922 488.836 37.1602 488.753 36.8281C488.283 34.3656 487.231 32.484 485.599 31.1836C483.966 29.8555 481.49 29.1914 478.169 29.1914C476.814 29.1914 475.596 29.3574 474.517 29.6895C473.438 30.0215 472.511 30.4919 471.736 31.1006C470.989 31.7093 470.408 32.4287 469.993 33.2588C469.578 34.0889 469.371 35.0158 469.371 36.0396C469.371 37.6167 469.855 38.9172 470.823 39.9409C471.792 40.9647 473.106 41.8916 474.766 42.7217C476.426 43.5241 478.349 44.3127 480.535 45.0874C482.721 45.8345 485.031 46.7337 487.466 47.7852C489.071 48.4492 490.579 49.2378 491.99 50.1509C493.429 51.0363 494.688 52.0877 495.767 53.3052C496.846 54.495 497.69 55.8923 498.299 57.4971C498.935 59.0742 499.253 60.8866 499.253 62.9341C499.253 65.12 498.825 67.1951 497.967 69.1597C497.109 71.0965 495.878 72.812 494.273 74.3062C492.696 75.7726 490.759 76.9347 488.462 77.7925C486.166 78.6502 483.579 79.0791 480.701 79.0791C479.318 79.0791 477.934 78.9546 476.551 78.7056C475.195 78.4842 473.881 78.1522 472.608 77.7095C471.363 77.2668 470.187 76.7272 469.08 76.0908C468.001 75.4544 467.046 74.735 466.216 73.9326V78H457.127V61.1494H465.096C465.262 61.8688 465.428 62.5329 465.594 63.1416C465.87 64.5527 466.272 65.8117 466.797 66.9185C467.351 67.9976 468.084 68.9106 468.997 69.6577C469.91 70.4048 471.031 70.972 472.359 71.3594C473.687 71.7467 475.278 71.9404 477.132 71.9404C478.543 71.9404 479.816 71.7744 480.95 71.4424C482.112 71.1104 483.108 70.64 483.938 70.0312C484.769 69.3949 485.405 68.6201 485.848 67.707C486.29 66.7663 486.512 65.7148 486.512 64.5527C486.512 62.9756 486.028 61.6613 485.059 60.6099C484.118 59.5308 482.859 58.59 481.282 57.7876C479.733 56.9852 477.976 56.252 476.011 55.5879C474.047 54.8962 472.055 54.1353 470.035 53.3052C465.663 51.5067 462.412 49.39 460.281 46.9551C458.178 44.5202 457.127 41.5734 457.127 38.1147C457.127 35.9289 457.528 33.8952 458.331 32.0137C459.161 30.1322 460.35 28.4997 461.9 27.1162C463.477 25.7327 465.386 24.6536 467.627 23.8789C469.869 23.0765 472.428 22.6753 475.306 22.6753C477.796 22.6753 480.245 22.9797 482.652 23.5884C485.087 24.1971 487.369 25.3454 489.5 27.0332C489.5 26.6458 489.486 26.2585 489.458 25.8711C489.458 25.4837 489.458 25.124 489.458 24.792V23.6714C489.625 23.6714 489.984 23.6714 490.538 23.6714C491.119 23.6714 491.783 23.6852 492.53 23.7129C493.305 23.7129 494.107 23.7129 494.937 23.7129C495.795 23.7129 496.556 23.7129 497.22 23.7129V38.8618ZM505.23 23.7129C507.914 23.7406 510.473 23.7544 512.908 23.7544C513.932 23.7544 514.983 23.7682 516.062 23.7959C517.169 23.7959 518.235 23.7959 519.258 23.7959C520.31 23.7959 521.292 23.7959 522.205 23.7959C523.118 23.7959 523.907 23.7959 524.571 23.7959H540.259C541.449 23.7959 542.694 23.7959 543.995 23.7959C545.323 23.7682 546.637 23.7544 547.938 23.7544C549.266 23.7544 550.566 23.7544 551.839 23.7544C553.112 23.7267 554.315 23.7129 555.45 23.7129V42.0576H548.892V36.4546C548.892 35.4862 548.837 34.7114 548.726 34.1304C548.615 33.5216 548.339 33.0513 547.896 32.7192C547.453 32.3872 546.789 32.1659 545.904 32.0552C545.046 31.9445 543.87 31.8892 542.376 31.8892H537.188V67.4165C537.188 67.7209 537.216 68.0667 537.271 68.4541C537.354 68.8138 537.52 69.1597 537.769 69.4917C538.046 69.7961 538.447 70.0589 538.973 70.2803C539.526 70.5016 540.259 70.6123 541.172 70.6123H543.497V78C542.473 78 541.477 78 540.508 78C539.568 78 538.585 78 537.562 78C536.565 77.9723 535.5 77.9585 534.366 77.9585C533.231 77.9308 531.958 77.917 530.547 77.917C529.579 77.917 528.528 77.9308 527.393 77.9585C526.286 77.9585 525.138 77.9585 523.948 77.9585C522.786 77.9585 521.638 77.9723 520.503 78C519.369 78 518.304 78 517.308 78V70.6123H519.632C520.656 70.6123 521.43 70.474 521.956 70.1973C522.509 69.9206 522.911 69.5609 523.16 69.1182C523.409 68.6755 523.547 68.1774 523.575 67.624C523.602 67.043 523.616 66.4757 523.616 65.9224V31.8892H516.976C515.841 31.8892 514.928 31.9445 514.236 32.0552C513.545 32.1382 513.005 32.3042 512.618 32.5532C512.258 32.8022 512.009 33.1343 511.871 33.5493C511.76 33.9644 511.705 34.4901 511.705 35.1265C511.705 35.4308 511.705 35.8874 511.705 36.4961C511.705 37.0771 511.705 37.7135 511.705 38.4053C511.705 39.0693 511.705 39.7472 511.705 40.439C511.732 41.103 511.746 41.6426 511.746 42.0576H505.23V23.7129Z" fill="#333333"/>
<rect x="11.6608" y="84.7756" width="88.3392" height="4.49517" fill="#333333"/>
<path d="M16.6078 55.0756L16.6078 89.271L11.6608 89.271L11.6608 49.5369L16.6078 55.0756Z" fill="#333333"/>
<path d="M11.6608 21.6829L11.6608 9.00006L16.6078 9.00006L16.6078 21.6829L11.6608 21.6829Z" fill="#333333"/>
<rect x="100" y="9" width="80.2709" height="5.12367" transform="rotate(90 100 9)" fill="#333333"/>
<rect x="11.6608" y="9" width="88.3392" height="4.65571" fill="#333333"/>
<path d="M0 26.9807H62.8765C68.9288 26.9807 74.4368 30.4755 77.0148 35.9513C81.9716 46.48 75.9292 58.8946 64.5849 61.4892L34.7173 68.3202L24.9117 54.1123L42.0495 52.1858L56.9359 50.4864C58.7019 50.2848 60.3868 49.6345 61.8303 48.5974L62.6575 48.0031C65.1233 46.2314 65.562 42.7369 63.6106 40.4106C62.8226 39.4713 61.6593 38.9287 60.4332 38.9287H12.0141L0 26.9807Z" fill="#333333"/>
<path d="M42.0495 52.1856L75.9718 100.428L55.4771 100.428L24.5583 54.0319L42.0495 52.1856Z" fill="#2D548D"/>
<path d="M24.5583 54.032L42.0495 52.1858L52.6502 67.2767L24.5583 54.032Z" fill="#2D548D"/>
<path d="M52.6503 67.2766L46.4666 86.8627L34.9825 69.6044L52.6503 67.2766Z" fill="#4F7EC3"/>
</svg>
