<svg width="242" height="80" viewBox="0 0 242 80" fill="none" xmlns="http://www.w3.org/2000/svg">
<path d="M99.5928 42.6973C99.6807 43.1855 99.7637 43.6104 99.8418 43.9717C99.9297 44.3232 100.027 44.6162 100.135 44.8506C100.252 45.085 100.389 45.2607 100.545 45.3779C100.711 45.4854 100.911 45.5391 101.146 45.5391C101.487 45.5391 101.746 45.4414 101.922 45.2461C102.098 45.0508 102.186 44.7188 102.186 44.25L103.885 44.0449C103.885 44.0547 103.885 44.084 103.885 44.1328C103.885 44.1719 103.88 44.2207 103.87 44.2793C103.87 44.3281 103.87 44.377 103.87 44.4258C103.87 44.4648 103.87 44.4893 103.87 44.499C103.851 45.1826 103.743 45.7686 103.548 46.2568C103.362 46.7451 103.094 47.1504 102.742 47.4727C102.391 47.7852 101.966 48.0146 101.468 48.1611C100.979 48.3076 100.423 48.3809 99.7979 48.3809C99.0459 48.3809 98.3916 48.2734 97.835 48.0586C97.2783 47.8438 96.7998 47.5215 96.3994 47.0918C95.999 46.6621 95.667 46.125 95.4033 45.4805C95.1396 44.8262 94.9248 44.0596 94.7588 43.1807C94.6123 42.3994 94.4365 41.75 94.2314 41.2324C94.0361 40.7148 93.8164 40.2852 93.5723 39.9434C93.3086 39.7285 92.9912 39.5869 92.6201 39.5186C92.249 39.4404 91.79 39.4014 91.2432 39.4014H89.9688L89.9541 44.3379C89.9541 44.5625 89.9736 44.748 90.0127 44.8945C90.0615 45.0312 90.1396 45.1387 90.2471 45.2168C90.3545 45.2852 90.501 45.334 90.6865 45.3633C90.8721 45.3828 91.1113 45.3926 91.4043 45.3926H92.0488V48C91.6875 48 91.3262 48 90.9648 48C90.6133 48 90.252 48 89.8809 48C89.5098 47.9902 89.1143 47.9854 88.6943 47.9854C88.2842 47.9756 87.8398 47.9707 87.3613 47.9707C86.8926 47.9707 86.4629 47.9756 86.0723 47.9854C85.6914 47.9854 85.3301 47.9854 84.9883 47.9854C84.6465 47.9854 84.3145 47.9902 83.9922 48C83.6797 48 83.3574 48 83.0254 48V45.3926H83.4941C83.9141 45.3926 84.2363 45.3633 84.4609 45.3047C84.6953 45.2363 84.8613 45.1387 84.959 45.0117C85.0664 44.8848 85.125 44.7285 85.1348 44.543C85.1543 44.3574 85.1641 44.1426 85.1641 43.8984V32.9561C85.1641 32.6826 85.1494 32.4531 85.1201 32.2676C85.1006 32.0723 85.0322 31.916 84.915 31.7988C84.8076 31.6719 84.6367 31.584 84.4023 31.5352C84.168 31.4766 83.8408 31.4473 83.4209 31.4473H83.0254V28.8398H92.3857C93.0986 28.8398 93.8018 28.8643 94.4951 28.9131C95.1982 28.9619 95.8623 29.0596 96.4873 29.2061C97.1221 29.3428 97.708 29.5332 98.2451 29.7773C98.792 30.0215 99.2607 30.3389 99.6514 30.7295C100.052 31.1201 100.364 31.5938 100.589 32.1504C100.813 32.707 100.926 33.3613 100.926 34.1133C100.926 34.6406 100.838 35.1436 100.662 35.6221C100.486 36.0908 100.228 36.5156 99.8857 36.8965C99.5537 37.2773 99.1436 37.6045 98.6553 37.8779C98.1768 38.1514 97.6299 38.3564 97.0146 38.4932C97.3076 38.6299 97.5859 38.8008 97.8496 39.0059C98.123 39.2109 98.3721 39.4746 98.5967 39.7969C98.8213 40.1191 99.0166 40.5146 99.1826 40.9834C99.3584 41.4521 99.4951 42.0234 99.5928 42.6973ZM89.9541 37.2773H92.2246C92.8789 37.2773 93.4453 37.2334 93.9238 37.1455C94.4121 37.0479 94.8125 36.8867 95.125 36.6621C95.4375 36.4375 95.6719 36.1445 95.8281 35.7832C95.9844 35.4219 96.0625 34.9678 96.0625 34.4209C96.0625 33.8447 95.9697 33.3711 95.7842 33C95.5986 32.6191 95.3252 32.3213 94.9639 32.1064C94.6123 31.8818 94.168 31.7305 93.6309 31.6523C93.1035 31.5645 92.4883 31.5205 91.7852 31.5205H89.9541V37.2773ZM114.666 28.4736C116.277 28.4736 117.703 28.7275 118.943 29.2354C120.193 29.7432 121.243 30.4463 122.093 31.3447C122.952 32.2334 123.602 33.2832 124.041 34.4941C124.49 35.7051 124.715 37.0088 124.715 38.4053C124.715 39.8018 124.49 41.1055 124.041 42.3164C123.602 43.5273 122.957 44.582 122.107 45.4805C121.258 46.3789 120.213 47.0869 118.973 47.6045C117.732 48.1221 116.312 48.3809 114.71 48.3809C113.089 48.3809 111.648 48.127 110.389 47.6191C109.129 47.1113 108.069 46.4131 107.21 45.5244C106.351 44.626 105.696 43.5713 105.247 42.3604C104.798 41.1396 104.573 39.8213 104.573 38.4053C104.573 37.0088 104.793 35.71 105.232 34.5088C105.672 33.2979 106.316 32.248 107.166 31.3594C108.025 30.4609 109.08 29.7578 110.33 29.25C111.59 28.7324 113.035 28.4736 114.666 28.4736ZM114.651 31.3154C113.812 31.3154 113.089 31.4766 112.483 31.7988C111.888 32.1211 111.395 32.5898 111.004 33.2051C110.623 33.8105 110.34 34.5527 110.154 35.4316C109.979 36.3008 109.891 37.2822 109.891 38.376C109.891 39.5186 109.988 40.5342 110.184 41.4229C110.379 42.3115 110.672 43.0635 111.062 43.6787C111.453 44.2842 111.946 44.748 112.542 45.0703C113.138 45.3828 113.841 45.5391 114.651 45.5391C115.472 45.5391 116.18 45.3779 116.775 45.0557C117.381 44.7236 117.874 44.25 118.255 43.6348C118.646 43.0195 118.934 42.2725 119.119 41.3936C119.314 40.5049 119.412 39.5039 119.412 38.3906C119.412 36.1055 119.021 34.3574 118.24 33.1465C117.459 31.9258 116.263 31.3154 114.651 31.3154ZM125.696 28.8398C126.644 28.8496 127.547 28.8545 128.406 28.8545C128.768 28.8545 129.139 28.8594 129.52 28.8691C129.91 28.8691 130.286 28.8691 130.647 28.8691C131.019 28.8691 131.365 28.8691 131.688 28.8691C132.01 28.8691 132.288 28.8691 132.522 28.8691H138.06C138.479 28.8691 138.919 28.8691 139.378 28.8691C139.847 28.8594 140.311 28.8545 140.77 28.8545C141.238 28.8545 141.697 28.8545 142.146 28.8545C142.596 28.8447 143.021 28.8398 143.421 28.8398V35.3145H141.106V33.3369C141.106 32.9951 141.087 32.7217 141.048 32.5166C141.009 32.3018 140.911 32.1357 140.755 32.0186C140.599 31.9014 140.364 31.8232 140.052 31.7842C139.749 31.7451 139.334 31.7256 138.807 31.7256H136.976V44.2646C136.976 44.3721 136.985 44.4941 137.005 44.6309C137.034 44.7578 137.093 44.8799 137.181 44.9971C137.278 45.1045 137.42 45.1973 137.605 45.2754C137.801 45.3535 138.06 45.3926 138.382 45.3926H139.202V48C138.841 48 138.489 48 138.147 48C137.815 48 137.469 48 137.107 48C136.756 47.9902 136.38 47.9854 135.979 47.9854C135.579 47.9756 135.13 47.9707 134.632 47.9707C134.29 47.9707 133.919 47.9756 133.519 47.9854C133.128 47.9854 132.723 47.9854 132.303 47.9854C131.893 47.9854 131.487 47.9902 131.087 48C130.687 48 130.311 48 129.959 48V45.3926H130.779C131.141 45.3926 131.414 45.3438 131.6 45.2461C131.795 45.1484 131.937 45.0215 132.024 44.8652C132.112 44.709 132.161 44.5332 132.171 44.3379C132.181 44.1328 132.186 43.9326 132.186 43.7373V31.7256H129.842C129.441 31.7256 129.119 31.7451 128.875 31.7842C128.631 31.8135 128.44 31.8721 128.304 31.96C128.177 32.0479 128.089 32.165 128.04 32.3115C128.001 32.458 127.981 32.6436 127.981 32.8682C127.981 32.9756 127.981 33.1367 127.981 33.3516C127.981 33.5566 127.981 33.7812 127.981 34.0254C127.981 34.2598 127.981 34.499 127.981 34.7432C127.991 34.9775 127.996 35.168 127.996 35.3145H125.696V28.8398ZM154.744 28.4736C156.355 28.4736 157.781 28.7275 159.021 29.2354C160.271 29.7432 161.321 30.4463 162.171 31.3447C163.03 32.2334 163.68 33.2832 164.119 34.4941C164.568 35.7051 164.793 37.0088 164.793 38.4053C164.793 39.8018 164.568 41.1055 164.119 42.3164C163.68 43.5273 163.035 44.582 162.186 45.4805C161.336 46.3789 160.291 47.0869 159.051 47.6045C157.811 48.1221 156.39 48.3809 154.788 48.3809C153.167 48.3809 151.727 48.127 150.467 47.6191C149.207 47.1113 148.147 46.4131 147.288 45.5244C146.429 44.626 145.774 43.5713 145.325 42.3604C144.876 41.1396 144.651 39.8213 144.651 38.4053C144.651 37.0088 144.871 35.71 145.311 34.5088C145.75 33.2979 146.395 32.248 147.244 31.3594C148.104 30.4609 149.158 29.7578 150.408 29.25C151.668 28.7324 153.113 28.4736 154.744 28.4736ZM154.729 31.3154C153.89 31.3154 153.167 31.4766 152.562 31.7988C151.966 32.1211 151.473 32.5898 151.082 33.2051C150.701 33.8105 150.418 34.5527 150.232 35.4316C150.057 36.3008 149.969 37.2822 149.969 38.376C149.969 39.5186 150.066 40.5342 150.262 41.4229C150.457 42.3115 150.75 43.0635 151.141 43.6787C151.531 44.2842 152.024 44.748 152.62 45.0703C153.216 45.3828 153.919 45.5391 154.729 45.5391C155.55 45.5391 156.258 45.3779 156.854 45.0557C157.459 44.7236 157.952 44.25 158.333 43.6348C158.724 43.0195 159.012 42.2725 159.197 41.3936C159.393 40.5049 159.49 39.5039 159.49 38.3906C159.49 36.1055 159.1 34.3574 158.318 33.1465C157.537 31.9258 156.341 31.3154 154.729 31.3154ZM183.763 28.8691V31.7256L172.542 45.3193H179.632C180.003 45.3193 180.301 45.2656 180.525 45.1582C180.75 45.0508 180.921 44.875 181.038 44.6309C181.155 44.377 181.233 44.0449 181.272 43.6348C181.312 43.2246 181.331 42.7217 181.331 42.126H184.07V48H167.049V45.0117L178.138 31.5645H172.571C172.024 31.5645 171.585 31.5693 171.253 31.5791C170.931 31.5889 170.682 31.6328 170.506 31.7109C170.34 31.7891 170.228 31.9209 170.169 32.1064C170.12 32.292 170.096 32.5654 170.096 32.9268V34.4795H167.386V28.8691H183.763ZM202.601 28.8398V34.1719H199.744V33.5713C199.744 33.1025 199.695 32.7412 199.598 32.4873C199.5 32.2334 199.363 32.0527 199.188 31.9453C199.012 31.8281 198.797 31.7598 198.543 31.7402C198.289 31.7207 198.006 31.7109 197.693 31.7109H192.786V37.0283H195.672C195.887 37.0283 196.067 37.0186 196.214 36.999C196.37 36.9697 196.502 36.9111 196.609 36.8232C196.717 36.7354 196.805 36.5986 196.873 36.4131C196.951 36.2275 197.015 35.9736 197.063 35.6514H198.309V40.8369H197.049C196.99 40.5244 196.927 40.2754 196.858 40.0898C196.79 39.9043 196.702 39.7676 196.595 39.6797C196.487 39.582 196.36 39.5234 196.214 39.5039C196.067 39.4746 195.887 39.46 195.672 39.46H192.786V45.1582H197.898C198.26 45.1582 198.562 45.1338 198.807 45.085C199.051 45.0361 199.246 44.9287 199.393 44.7627C199.549 44.5967 199.661 44.3623 199.729 44.0596C199.798 43.7471 199.832 43.332 199.832 42.8145V42.3457H202.659V48H185.857V45.3926H186.941C187.195 45.3926 187.391 45.3486 187.527 45.2607C187.674 45.1729 187.781 45.0508 187.85 44.8945C187.928 44.7383 187.972 44.5625 187.981 44.3672C188.001 44.1719 188.011 43.9619 188.011 43.7373V33.1904C188.011 32.9756 188.006 32.7607 187.996 32.5459C187.986 32.3311 187.947 32.1406 187.879 31.9746C187.811 31.8086 187.703 31.6768 187.557 31.5791C187.42 31.4717 187.215 31.418 186.941 31.418H185.916V28.8398H202.601ZM219.725 34.1865H216.912C216.873 34.0596 216.839 33.9375 216.81 33.8203C216.79 33.7031 216.766 33.5859 216.736 33.4688C216.57 32.5996 216.199 31.9355 215.623 31.4766C215.047 31.0078 214.173 30.7734 213.001 30.7734C212.522 30.7734 212.093 30.832 211.712 30.9492C211.331 31.0664 211.004 31.2324 210.73 31.4473C210.467 31.6621 210.262 31.916 210.115 32.209C209.969 32.502 209.896 32.8291 209.896 33.1904C209.896 33.7471 210.066 34.2061 210.408 34.5674C210.75 34.9287 211.214 35.2559 211.8 35.5488C212.386 35.832 213.064 36.1104 213.836 36.3838C214.607 36.6475 215.423 36.9648 216.282 37.3359C216.849 37.5703 217.381 37.8486 217.879 38.1709C218.387 38.4834 218.831 38.8545 219.212 39.2842C219.593 39.7041 219.891 40.1973 220.105 40.7637C220.33 41.3203 220.442 41.96 220.442 42.6826C220.442 43.4541 220.291 44.1865 219.988 44.8799C219.686 45.5635 219.251 46.1689 218.685 46.6963C218.128 47.2139 217.444 47.624 216.634 47.9268C215.823 48.2295 214.91 48.3809 213.895 48.3809C213.406 48.3809 212.918 48.3369 212.43 48.249C211.951 48.1709 211.487 48.0537 211.038 47.8975C210.599 47.7412 210.184 47.5508 209.793 47.3262C209.412 47.1016 209.075 46.8477 208.782 46.5645V48H205.574V42.0527H208.387C208.445 42.3066 208.504 42.541 208.562 42.7559C208.66 43.2539 208.802 43.6982 208.987 44.0889C209.183 44.4697 209.441 44.792 209.764 45.0557C210.086 45.3193 210.481 45.5195 210.95 45.6562C211.419 45.793 211.98 45.8613 212.635 45.8613C213.133 45.8613 213.582 45.8027 213.982 45.6855C214.393 45.5684 214.744 45.4023 215.037 45.1875C215.33 44.9629 215.555 44.6895 215.711 44.3672C215.867 44.0352 215.945 43.6641 215.945 43.2539C215.945 42.6973 215.774 42.2334 215.433 41.8623C215.101 41.4814 214.656 41.1494 214.1 40.8662C213.553 40.583 212.933 40.3242 212.239 40.0898C211.546 39.8457 210.843 39.5771 210.13 39.2842C208.587 38.6494 207.439 37.9023 206.688 37.043C205.945 36.1836 205.574 35.1436 205.574 33.9229C205.574 33.1514 205.716 32.4336 205.999 31.7695C206.292 31.1055 206.712 30.5293 207.259 30.041C207.815 29.5527 208.489 29.1719 209.28 28.8984C210.071 28.6152 210.975 28.4736 211.99 28.4736C212.869 28.4736 213.733 28.5811 214.583 28.7959C215.442 29.0107 216.248 29.416 217 30.0117C217 29.875 216.995 29.7383 216.985 29.6016C216.985 29.4648 216.985 29.3379 216.985 29.2207V28.8252C217.044 28.8252 217.171 28.8252 217.366 28.8252C217.571 28.8252 217.806 28.8301 218.069 28.8398C218.343 28.8398 218.626 28.8398 218.919 28.8398C219.222 28.8398 219.49 28.8398 219.725 28.8398V34.1865ZM222.552 28.8398C223.499 28.8496 224.402 28.8545 225.262 28.8545C225.623 28.8545 225.994 28.8594 226.375 28.8691C226.766 28.8691 227.142 28.8691 227.503 28.8691C227.874 28.8691 228.221 28.8691 228.543 28.8691C228.865 28.8691 229.144 28.8691 229.378 28.8691H234.915C235.335 28.8691 235.774 28.8691 236.233 28.8691C236.702 28.8594 237.166 28.8545 237.625 28.8545C238.094 28.8545 238.553 28.8545 239.002 28.8545C239.451 28.8447 239.876 28.8398 240.276 28.8398V35.3145H237.962V33.3369C237.962 32.9951 237.942 32.7217 237.903 32.5166C237.864 32.3018 237.767 32.1357 237.61 32.0186C237.454 31.9014 237.22 31.8232 236.907 31.7842C236.604 31.7451 236.189 31.7256 235.662 31.7256H233.831V44.2646C233.831 44.3721 233.841 44.4941 233.86 44.6309C233.89 44.7578 233.948 44.8799 234.036 44.9971C234.134 45.1045 234.275 45.1973 234.461 45.2754C234.656 45.3535 234.915 45.3926 235.237 45.3926H236.058V48C235.696 48 235.345 48 235.003 48C234.671 48 234.324 48 233.963 48C233.611 47.9902 233.235 47.9854 232.835 47.9854C232.435 47.9756 231.985 47.9707 231.487 47.9707C231.146 47.9707 230.774 47.9756 230.374 47.9854C229.983 47.9854 229.578 47.9854 229.158 47.9854C228.748 47.9854 228.343 47.9902 227.942 48C227.542 48 227.166 48 226.814 48V45.3926H227.635C227.996 45.3926 228.27 45.3438 228.455 45.2461C228.65 45.1484 228.792 45.0215 228.88 44.8652C228.968 44.709 229.017 44.5332 229.026 44.3379C229.036 44.1328 229.041 43.9326 229.041 43.7373V31.7256H226.697C226.297 31.7256 225.975 31.7451 225.73 31.7842C225.486 31.8135 225.296 31.8721 225.159 31.96C225.032 32.0479 224.944 32.165 224.896 32.3115C224.856 32.458 224.837 32.6436 224.837 32.8682C224.837 32.9756 224.837 33.1367 224.837 33.3516C224.837 33.5566 224.837 33.7812 224.837 34.0254C224.837 34.2598 224.837 34.499 224.837 34.7432C224.847 34.9775 224.852 35.168 224.852 35.3145H222.552V28.8398Z" fill="#333333"/>
<rect x="8.39575" y="60.6206" width="63.6042" height="3.59614" fill="#333333"/>
<path d="M11.9576 36.8604L11.9576 64.2168L8.3958 64.2168L8.3958 32.4295L11.9576 36.8604Z" fill="#333333"/>
<path d="M8.39575 10.1463L8.39575 2.67029e-05L11.9576 2.67454e-05L11.9576 10.1463L8.39575 10.1463Z" fill="#333333"/>
<rect x="72" width="64.2167" height="3.68904" transform="rotate(90 72 0)" fill="#333333"/>
<rect x="8.39575" width="63.6042" height="3.72457" fill="#333333"/>
<path d="M0 14.3846H44.0222C49.1069 14.3846 53.6985 17.4258 55.6822 22.1076C59.2132 30.4408 54.4894 39.9613 45.7177 42.1904L24.9965 47.4562L17.9364 36.0898L30.2756 34.5486L40.6577 33.2318C42.1457 33.043 43.553 32.4481 44.7252 31.5123L45.1771 31.1516C46.9726 29.7182 47.3001 27.1159 45.9158 25.2823C45.279 24.4388 44.2833 23.943 43.2263 23.943H8.65018L0 14.3846Z" fill="#333333"/>
<path d="M30.2755 34.5487L54.6996 73.1429L39.9434 73.1429L17.6819 36.0256L30.2755 34.5487Z" fill="#2D548D"/>
<path d="M17.6819 36.0256L30.2756 34.5486L37.9081 46.6214L17.6819 36.0256Z" fill="#2D548D"/>
<path d="M37.9081 46.6214L33.4558 62.2903L25.1873 48.4837L37.9081 46.6214Z" fill="#4F7EC3"/>
</svg>
