<svg width="566" height="680" viewBox="0 0 566 680" fill="none" xmlns="http://www.w3.org/2000/svg">
<path d="M131.778 632.092C132.042 633.557 132.291 634.831 132.525 635.915C132.789 636.97 133.082 637.849 133.404 638.552C133.756 639.255 134.166 639.782 134.635 640.134C135.133 640.456 135.733 640.617 136.437 640.617C137.462 640.617 138.238 640.324 138.766 639.738C139.293 639.152 139.557 638.156 139.557 636.75L144.654 636.135C144.654 636.164 144.654 636.252 144.654 636.398C144.654 636.516 144.64 636.662 144.61 636.838C144.61 636.984 144.61 637.131 144.61 637.277C144.61 637.395 144.61 637.468 144.61 637.497C144.552 639.548 144.229 641.306 143.644 642.771C143.087 644.235 142.281 645.451 141.227 646.418C140.172 647.355 138.897 648.044 137.403 648.483C135.938 648.923 134.269 649.143 132.394 649.143C130.138 649.143 128.175 648.82 126.505 648.176C124.835 647.531 123.399 646.564 122.198 645.275C120.997 643.986 120.001 642.375 119.21 640.441C118.419 638.479 117.774 636.179 117.276 633.542C116.837 631.198 116.31 629.25 115.694 627.697C115.108 626.145 114.449 624.855 113.717 623.83C112.926 623.186 111.974 622.761 110.86 622.556C109.747 622.321 108.37 622.204 106.729 622.204H102.906L102.862 637.014C102.862 637.688 102.921 638.244 103.038 638.684C103.185 639.094 103.419 639.416 103.741 639.65C104.063 639.855 104.503 640.002 105.06 640.09C105.616 640.148 106.334 640.178 107.213 640.178H109.146V648C108.062 648 106.979 648 105.895 648C104.84 648 103.756 648 102.643 648C101.529 647.971 100.343 647.956 99.083 647.956C97.8525 647.927 96.5195 647.912 95.084 647.912C93.6777 647.912 92.3887 647.927 91.2168 647.956C90.0742 647.956 88.9902 647.956 87.9648 647.956C86.9395 647.956 85.9434 647.971 84.9766 648C84.0391 648 83.0723 648 82.0762 648V640.178H83.4824C84.7422 640.178 85.709 640.09 86.3828 639.914C87.0859 639.709 87.584 639.416 87.877 639.035C88.1992 638.654 88.375 638.186 88.4043 637.629C88.4629 637.072 88.4922 636.428 88.4922 635.695V602.868C88.4922 602.048 88.4482 601.359 88.3604 600.803C88.3018 600.217 88.0967 599.748 87.7451 599.396C87.4229 599.016 86.9102 598.752 86.207 598.605C85.5039 598.43 84.5225 598.342 83.2627 598.342H82.0762V590.52H110.157C112.296 590.52 114.405 590.593 116.485 590.739C118.595 590.886 120.587 591.179 122.462 591.618C124.366 592.028 126.124 592.6 127.735 593.332C129.376 594.064 130.782 595.017 131.954 596.188C133.155 597.36 134.093 598.781 134.767 600.451C135.44 602.121 135.777 604.084 135.777 606.34C135.777 607.922 135.514 609.431 134.986 610.866C134.459 612.272 133.683 613.547 132.657 614.689C131.661 615.832 130.431 616.813 128.966 617.634C127.53 618.454 125.89 619.069 124.044 619.479C124.923 619.89 125.758 620.402 126.549 621.018C127.369 621.633 128.116 622.424 128.79 623.391C129.464 624.357 130.05 625.544 130.548 626.95C131.075 628.356 131.485 630.07 131.778 632.092ZM102.862 615.832H109.674C111.637 615.832 113.336 615.7 114.771 615.437C116.236 615.144 117.438 614.66 118.375 613.986C119.312 613.312 120.016 612.434 120.484 611.35C120.953 610.266 121.188 608.903 121.188 607.263C121.188 605.534 120.909 604.113 120.353 603C119.796 601.857 118.976 600.964 117.892 600.319C116.837 599.646 115.504 599.191 113.893 598.957C112.311 598.693 110.465 598.562 108.355 598.562H102.862V615.832ZM176.998 589.421C181.832 589.421 186.109 590.183 189.83 591.706C193.58 593.229 196.729 595.339 199.278 598.034C201.856 600.7 203.805 603.85 205.123 607.482C206.471 611.115 207.145 615.026 207.145 619.216C207.145 623.405 206.471 627.316 205.123 630.949C203.805 634.582 201.871 637.746 199.322 640.441C196.773 643.137 193.639 645.261 189.918 646.813C186.197 648.366 181.935 649.143 177.13 649.143C172.267 649.143 167.945 648.381 164.166 646.857C160.387 645.334 157.208 643.239 154.63 640.573C152.052 637.878 150.089 634.714 148.741 631.081C147.394 627.419 146.72 623.464 146.72 619.216C146.72 615.026 147.379 611.13 148.697 607.526C150.016 603.894 151.949 600.744 154.498 598.078C157.076 595.383 160.24 593.273 163.99 591.75C167.77 590.197 172.105 589.421 176.998 589.421ZM176.954 597.946C174.435 597.946 172.267 598.43 170.45 599.396C168.663 600.363 167.184 601.77 166.012 603.615C164.869 605.432 164.02 607.658 163.463 610.295C162.936 612.902 162.672 615.847 162.672 619.128C162.672 622.556 162.965 625.603 163.551 628.269C164.137 630.935 165.016 633.19 166.188 635.036C167.359 636.853 168.839 638.244 170.626 639.211C172.413 640.148 174.522 640.617 176.954 640.617C179.415 640.617 181.539 640.134 183.326 639.167C185.143 638.171 186.622 636.75 187.765 634.904C188.937 633.059 189.801 630.817 190.357 628.181C190.943 625.515 191.236 622.512 191.236 619.172C191.236 612.316 190.064 607.072 187.721 603.439C185.377 599.777 181.788 597.946 176.954 597.946ZM210.089 590.52C212.931 590.549 215.641 590.563 218.219 590.563C219.303 590.563 220.416 590.578 221.559 590.607C222.73 590.607 223.858 590.607 224.942 590.607C226.056 590.607 227.096 590.607 228.062 590.607C229.029 590.607 229.864 590.607 230.567 590.607H247.179C248.438 590.607 249.757 590.607 251.134 590.607C252.54 590.578 253.932 590.563 255.309 590.563C256.715 590.563 258.092 590.563 259.439 590.563C260.787 590.534 262.062 590.52 263.263 590.52V609.943H256.319V604.011C256.319 602.985 256.261 602.165 256.144 601.55C256.026 600.905 255.733 600.407 255.265 600.056C254.796 599.704 254.093 599.47 253.155 599.353C252.247 599.235 251.002 599.177 249.42 599.177H243.927V636.794C243.927 637.116 243.956 637.482 244.015 637.893C244.103 638.273 244.278 638.64 244.542 638.991C244.835 639.313 245.26 639.592 245.816 639.826C246.402 640.061 247.179 640.178 248.146 640.178H250.606V648C249.522 648 248.468 648 247.442 648C246.446 648 245.406 648 244.322 648C243.268 647.971 242.14 647.956 240.938 647.956C239.737 647.927 238.39 647.912 236.896 647.912C235.87 647.912 234.757 647.927 233.556 647.956C232.384 647.956 231.168 647.956 229.908 647.956C228.678 647.956 227.462 647.971 226.261 648C225.06 648 223.932 648 222.877 648V640.178H225.338C226.422 640.178 227.242 640.031 227.799 639.738C228.385 639.445 228.81 639.064 229.073 638.596C229.337 638.127 229.483 637.6 229.513 637.014C229.542 636.398 229.557 635.798 229.557 635.212V599.177H222.525C221.324 599.177 220.357 599.235 219.625 599.353C218.893 599.44 218.321 599.616 217.911 599.88C217.53 600.144 217.267 600.495 217.12 600.935C217.003 601.374 216.944 601.931 216.944 602.604C216.944 602.927 216.944 603.41 216.944 604.055C216.944 604.67 216.944 605.344 216.944 606.076C216.944 606.779 216.944 607.497 216.944 608.229C216.974 608.933 216.988 609.504 216.988 609.943H210.089V590.52ZM297.232 589.421C302.066 589.421 306.344 590.183 310.064 591.706C313.814 593.229 316.964 595.339 319.513 598.034C322.091 600.7 324.039 603.85 325.357 607.482C326.705 611.115 327.379 615.026 327.379 619.216C327.379 623.405 326.705 627.316 325.357 630.949C324.039 634.582 322.105 637.746 319.557 640.441C317.008 643.137 313.873 645.261 310.152 646.813C306.432 648.366 302.169 649.143 297.364 649.143C292.501 649.143 288.18 648.381 284.4 646.857C280.621 645.334 277.442 643.239 274.864 640.573C272.286 637.878 270.323 634.714 268.976 631.081C267.628 627.419 266.954 623.464 266.954 619.216C266.954 615.026 267.613 611.13 268.932 607.526C270.25 603.894 272.184 600.744 274.732 598.078C277.311 595.383 280.475 593.273 284.225 591.75C288.004 590.197 292.34 589.421 297.232 589.421ZM297.188 597.946C294.669 597.946 292.501 598.43 290.685 599.396C288.897 600.363 287.418 601.77 286.246 603.615C285.104 605.432 284.254 607.658 283.697 610.295C283.17 612.902 282.906 615.847 282.906 619.128C282.906 622.556 283.199 625.603 283.785 628.269C284.371 630.935 285.25 633.19 286.422 635.036C287.594 636.853 289.073 638.244 290.86 639.211C292.647 640.148 294.757 640.617 297.188 640.617C299.649 640.617 301.773 640.134 303.561 639.167C305.377 638.171 306.856 636.75 307.999 634.904C309.171 633.059 310.035 630.817 310.592 628.181C311.178 625.515 311.471 622.512 311.471 619.172C311.471 612.316 310.299 607.072 307.955 603.439C305.611 599.777 302.022 597.946 297.188 597.946ZM384.288 590.607V599.177L350.626 639.958H371.896C373.009 639.958 373.902 639.797 374.576 639.475C375.25 639.152 375.763 638.625 376.114 637.893C376.466 637.131 376.7 636.135 376.817 634.904C376.935 633.674 376.993 632.165 376.993 630.378H385.211V648H334.146V639.035L367.413 598.693H350.714C349.073 598.693 347.755 598.708 346.759 598.737C345.792 598.767 345.045 598.898 344.518 599.133C344.02 599.367 343.683 599.763 343.507 600.319C343.36 600.876 343.287 601.696 343.287 602.78V607.438H335.157V590.607H384.288ZM440.802 590.52V606.516H432.232V604.714C432.232 603.308 432.086 602.224 431.793 601.462C431.5 600.7 431.09 600.158 430.562 599.836C430.035 599.484 429.391 599.279 428.629 599.221C427.867 599.162 427.018 599.133 426.08 599.133H411.358V615.085H420.016C420.66 615.085 421.202 615.056 421.642 614.997C422.11 614.909 422.506 614.733 422.828 614.47C423.15 614.206 423.414 613.796 423.619 613.239C423.854 612.683 424.044 611.921 424.19 610.954H427.926V626.511H424.146C423.971 625.573 423.78 624.826 423.575 624.27C423.37 623.713 423.106 623.303 422.784 623.039C422.462 622.746 422.081 622.57 421.642 622.512C421.202 622.424 420.66 622.38 420.016 622.38H411.358V639.475H426.695C427.779 639.475 428.688 639.401 429.42 639.255C430.152 639.108 430.738 638.786 431.178 638.288C431.646 637.79 431.983 637.087 432.188 636.179C432.394 635.241 432.496 633.996 432.496 632.443V631.037H440.978V648H390.572V640.178H393.824C394.586 640.178 395.172 640.046 395.582 639.782C396.021 639.519 396.344 639.152 396.549 638.684C396.783 638.215 396.915 637.688 396.944 637.102C397.003 636.516 397.032 635.886 397.032 635.212V603.571C397.032 602.927 397.018 602.282 396.988 601.638C396.959 600.993 396.842 600.422 396.637 599.924C396.432 599.426 396.109 599.03 395.67 598.737C395.26 598.415 394.645 598.254 393.824 598.254H390.748V590.52H440.802ZM492.174 606.56H483.736C483.619 606.179 483.517 605.812 483.429 605.461C483.37 605.109 483.297 604.758 483.209 604.406C482.711 601.799 481.598 599.807 479.869 598.43C478.141 597.023 475.519 596.32 472.003 596.32C470.567 596.32 469.278 596.496 468.136 596.848C466.993 597.199 466.012 597.697 465.191 598.342C464.4 598.986 463.785 599.748 463.346 600.627C462.906 601.506 462.687 602.487 462.687 603.571C462.687 605.241 463.199 606.618 464.225 607.702C465.25 608.786 466.642 609.768 468.399 610.646C470.157 611.496 472.193 612.331 474.508 613.151C476.822 613.942 479.269 614.895 481.847 616.008C483.546 616.711 485.143 617.546 486.637 618.513C488.16 619.45 489.493 620.563 490.636 621.853C491.778 623.112 492.672 624.592 493.316 626.291C493.99 627.961 494.327 629.88 494.327 632.048C494.327 634.362 493.873 636.56 492.965 638.64C492.057 640.69 490.753 642.507 489.054 644.089C487.384 645.642 485.333 646.872 482.901 647.78C480.47 648.688 477.73 649.143 474.684 649.143C473.219 649.143 471.754 649.011 470.289 648.747C468.854 648.513 467.462 648.161 466.114 647.692C464.796 647.224 463.551 646.652 462.379 645.979C461.236 645.305 460.226 644.543 459.347 643.693V648H449.723V630.158H458.16C458.336 630.92 458.512 631.623 458.688 632.268C458.98 633.762 459.405 635.095 459.962 636.267C460.548 637.409 461.324 638.376 462.291 639.167C463.258 639.958 464.444 640.559 465.851 640.969C467.257 641.379 468.941 641.584 470.904 641.584C472.398 641.584 473.746 641.408 474.947 641.057C476.178 640.705 477.232 640.207 478.111 639.562C478.99 638.889 479.664 638.068 480.133 637.102C480.602 636.105 480.836 634.992 480.836 633.762C480.836 632.092 480.323 630.7 479.298 629.587C478.302 628.444 476.969 627.448 475.299 626.599C473.658 625.749 471.798 624.973 469.718 624.27C467.638 623.537 465.528 622.731 463.39 621.853C458.761 619.948 455.318 617.707 453.062 615.129C450.836 612.551 449.723 609.431 449.723 605.769C449.723 603.454 450.147 601.301 450.997 599.309C451.876 597.316 453.136 595.588 454.776 594.123C456.446 592.658 458.468 591.516 460.841 590.695C463.214 589.846 465.924 589.421 468.971 589.421C471.607 589.421 474.2 589.743 476.749 590.388C479.327 591.032 481.744 592.248 484 594.035C484 593.625 483.985 593.215 483.956 592.805C483.956 592.395 483.956 592.014 483.956 591.662V590.476C484.132 590.476 484.513 590.476 485.099 590.476C485.714 590.476 486.417 590.49 487.208 590.52C488.028 590.52 488.878 590.52 489.757 590.52C490.665 590.52 491.471 590.52 492.174 590.52V606.56ZM500.655 590.52C503.497 590.549 506.207 590.563 508.785 590.563C509.869 590.563 510.982 590.578 512.125 590.607C513.297 590.607 514.425 590.607 515.509 590.607C516.622 590.607 517.662 590.607 518.629 590.607C519.596 590.607 520.431 590.607 521.134 590.607H537.745C539.005 590.607 540.323 590.607 541.7 590.607C543.106 590.578 544.498 590.563 545.875 590.563C547.281 590.563 548.658 590.563 550.006 590.563C551.354 590.534 552.628 590.52 553.829 590.52V609.943H546.886V604.011C546.886 602.985 546.827 602.165 546.71 601.55C546.593 600.905 546.3 600.407 545.831 600.056C545.362 599.704 544.659 599.47 543.722 599.353C542.813 599.235 541.568 599.177 539.986 599.177H534.493V636.794C534.493 637.116 534.522 637.482 534.581 637.893C534.669 638.273 534.845 638.64 535.108 638.991C535.401 639.313 535.826 639.592 536.383 639.826C536.969 640.061 537.745 640.178 538.712 640.178H541.173V648C540.089 648 539.034 648 538.009 648C537.013 648 535.973 648 534.889 648C533.834 647.971 532.706 647.956 531.505 647.956C530.304 647.927 528.956 647.912 527.462 647.912C526.437 647.912 525.323 647.927 524.122 647.956C522.95 647.956 521.734 647.956 520.475 647.956C519.244 647.956 518.028 647.971 516.827 648C515.626 648 514.498 648 513.443 648V640.178H515.904C516.988 640.178 517.809 640.031 518.365 639.738C518.951 639.445 519.376 639.064 519.64 638.596C519.903 638.127 520.05 637.6 520.079 637.014C520.108 636.398 520.123 635.798 520.123 635.212V599.177H513.092C511.891 599.177 510.924 599.235 510.191 599.353C509.459 599.44 508.888 599.616 508.478 599.88C508.097 600.144 507.833 600.495 507.687 600.935C507.569 601.374 507.511 601.931 507.511 602.604C507.511 602.927 507.511 603.41 507.511 604.055C507.511 604.67 507.511 605.344 507.511 606.076C507.511 606.779 507.511 607.497 507.511 608.229C507.54 608.933 507.555 609.504 507.555 609.943H500.655V590.52Z" fill="black"/>
<rect x="66" y="472" width="500" height="28" fill="#333333"/>
<path d="M94 287L94 500L66 500L66 252.5L94 287Z" fill="#333333"/>
<path d="M66 79L66 0L94 3.33896e-07L94 79L66 79Z" fill="#333333"/>
<rect x="566" width="500" height="29" transform="rotate(90 566 0)" fill="#333333"/>
<rect x="66" width="500" height="29" fill="#333333"/>
<path d="M0 112H347.016C386.434 112 422.055 135.505 437.559 171.747C465.346 236.702 428.482 311.11 359.969 328.355L196.5 369.5L141 281L238 269L319.869 258.715C331.403 257.266 342.32 252.689 351.439 245.479L355.093 242.59C369.197 231.437 371.765 211.04 360.864 196.74C355.909 190.239 348.202 186.423 340.027 186.423H68L0 112Z" fill="#333333"/>
<path d="M238 269L430 569.5L314 569.5L139 280.5L238 269Z" fill="#2D548D"/>
<path d="M139 280.5L238 269L298 363L139 280.5Z" fill="#2D548D"/>
<path d="M298 363L263.001 485L198.001 377.5L298 363Z" fill="#4F7EC3"/>
</svg>
